<?xml version="1.0" encoding="utf-8"?>
<!-- Generator: Adobe Illustrator 27.1.1, SVG Export Plug-In . SVG Version: 6.00 Build 0)  -->
<svg version="1.1" id="Слой_1" xmlns="http://www.w3.org/2000/svg" xmlns:xlink="http://www.w3.org/1999/xlink" x="0px" y="0px"
	 viewBox="0 0 518 464" style="enable-background:new 0 0 518 464;" xml:space="preserve">
<style type="text/css">
	.st0{fill-rule:evenodd;clip-rule:evenodd;fill:#FFFFFF;}
	.st1{fill:#FFFFFF;filter:url(#Adobe_OpacityMaskFilter);}
	.st2{fill-rule:evenodd;clip-rule:evenodd;}
	.st3{mask:url(#path-1-outside-1_103:2115_00000052792933338950006130000006096059322111916673_);fill:#FFFFFF;}
</style>
<path class="st0" d="M285,4c-38.3,8-66.8,35.4-76.6,73.7c-1.5,5.9-1.9,11-1.9,24.5v17l-7.3,2.8c-10.1,3.9-24,13.3-32.7,22.1
	l-7.3,7.3l-10.6-16.8c-11.5-18.2-13.4-19.9-20.1-18.6c-2.3,0.4-4.3,1.8-5.9,3.9c-4.1,5.4-57.9,90.8-59.2,94c-1.7,4.2-0.8,8.1,2.7,11
	c2.6,2.2,3.9,2.5,10.9,2.5c4.4,0,7.9,0.2,7.9,0.5c0,0.3-8.3,14.1-18.5,30.8c-10.2,16.7-19,31.6-19.6,33.1c-1.4,3.7-0.4,7.6,2.6,10.5
	c2.1,2,3.8,2.4,11.5,2.7c6.3,0.3,8.9,0.8,8.6,1.6c-0.2,0.6-9.1,15.7-19.6,33.5s-19.4,33.6-19.7,35.1c-0.3,1.5,0,4.2,0.7,5.9
	c2.2,5.4,4.7,5.9,27.3,5.9c19.1,0,20.6-0.1,23.1-2.1c3.4-2.7,3.6-7.9,0.4-10.9c-2-1.9-3.5-2-17.5-2c-8.4,0-15.3-0.2-15.3-0.4
	c0-0.2,8.6-14.9,19.2-32.7c10.5-17.8,19.7-33.8,20.4-35.6c1.5-4.3,0.9-7.5-2.2-10.3c-2.1-2-3.8-2.4-11.8-2.8l-9.4-0.5l19.4-31.9
	c21.3-35,21.9-36.5,17-42.1c-2.2-2.6-3-2.8-11-3.2c-4.7-0.2-8.6-0.5-8.6-0.7c0-0.2,11-17.7,24.4-38.8l24.4-38.5l24.6,38.7l24.6,38.7
	l-8.5,0.5c-7.5,0.5-8.8,0.8-11.2,3.2c-5.3,5.3-4.7,6.9,16.1,41.1c10.4,17,19.1,31.5,19.3,32.2c0.4,1-1.3,1.3-7.7,1.3
	c-9.5,0-13.2,1.5-15,5.9c-1.7,4-0.8,6.8,5,16.6l4.9,8.2L172,346.4l-10.9,25.3l-25.5,0.5c-28.7,0.6-29.6,0.8-29.6,7.4
	c0,5,3.7,7.6,10.7,7.6h5.4l-0.3,29.7l-0.3,29.7l-57.2,0.3L7,447L5,449.6c-3.5,4.5-2.2,9.2,3.3,11.3c3.8,1.5,497.6,1.5,501.4,0
	c5.5-2.1,6.9-6.8,3.3-11.3L511,447l-45.2-0.3l-45.2-0.3l-0.3-17.2L420,412h30c19.4,0,30.8-0.4,32.4-1.1c3-1.3,5.7-5.9,5.7-9.4
	c0-3.7-17.6-44.6-20.1-46.7c-4.4-3.7-11.9-0.4-11.9,5.1c0,1.2,3.3,10.1,7.4,19.6l7.4,17.4h-25.4h-25.4v-15.5c0-15.1-0.1-15.6-2.5-18
	c-2.7-2.7-4.3-3-7.9-1.3c-3.9,1.8-4.7,4.9-4.7,20.4v14.4H382c-13,0-22.9-0.4-22.8-0.9c4.4-11.8,55.5-128.6,56-128.1
	c0.4,0.4,6.3,13.7,13.2,29.7c6.8,15.9,13,30.1,13.7,31.6c3.3,7.2,14,4.8,14-3c0-1.1-3.8-10.8-8.5-21.7l-8.5-19.7l5.9-6.3
	c16-17.1,25.1-40.9,25.1-65.7c0-19-4.7-36.1-14.3-51.6c-5.9-9.6-17.6-22.3-26.3-28.4c-5.7-4.1-22-12.5-26.2-13.6
	c-1.8-0.5-1.9-1-1.2-5.4c1.2-7,1.1-15.2-0.1-17.5c-1.5-2.9-5.7-4.2-9-2.9c-3.2,1.3-4.9,4.7-4.9,9.7c0,2-0.7,7.8-1.7,12.9
	c-2.2,12.3-1.7,13.1,10.9,17.2c34.9,11.6,57.8,42.6,57.8,78.4c0,15.9-2.1,25.5-8.6,38.4c-3.3,6.6-12,19-13.4,19
	c-0.4,0-2.7-4.6-5.1-10.2c-5.5-13.1-6.4-14.4-10.5-15.7c-2.7-0.9-4-0.8-6.4,0.5c-3.7,1.9-4.2,2.8-15.3,29
	c-4.9,11.5-9.3,21.3-9.8,21.8c-0.5,0.5-3.9,1.1-7.7,1.4c-3.8,0.3-7.8,1.1-9,1.9c-1.2,0.8-3.9,4.6-6,8.6
	c-8.8,16.8-28.7,31.2-47.1,34.1l-4.3,0.7v-43.1v-43.1l19-19.1c20.7-20.7,21.5-22,16.6-27c-4.7-4.7-6.6-3.7-21.7,11.2L312,233.8
	v-19.7c0-19.6,0-19.7-2.5-22.2c-1.4-1.3-3.6-2.5-5-2.5c-1.4,0-3.7,1.1-5,2.5l-2.5,2.4v45.2v45.2l-13.3-13.2
	c-14.6-14.4-16.5-15.4-21.2-10.7c-4.9,4.9-4.1,6.3,16.1,26.5l18.5,18.6v17.8v17.8l-4.2-0.7c-6-1-14-3.9-20.8-7.5l-5.9-3.1
	l-17.6-41.1c-10.2-23.8-18.6-42.1-20-43.5c-1.7-1.7-3.5-2.4-6-2.4c-5.1,0-7.5,3-13.5,17.2c-2.9,6.8-5.6,11.9-5.9,11.5
	s-6.6-10.5-13.8-22.4l-13.1-21.6l9-0.3c8.4-0.3,9.2-0.5,11.4-3.1c4.7-5.5,3.9-7.6-12.4-33.5c-8.2-12.9-15.2-24-15.5-24.7
	c-0.9-1.6,12.4-15.5,19.8-20.7c8-5.7,13.2-8.2,24.1-12c11.7-4,12.3-5.1,10-16.8c-2.3-11-1.5-29.2,1.6-39.2
	c3.4-10.8,8.5-20.5,15.5-29.1c11-13.6,24.7-22.7,42-28c8-2.4,10.5-2.7,22.5-2.7c10.5,0,15.3,0.5,21.5,2.2
	c23.4,6.2,43.1,22.5,54.4,44.8c4.6,9.2,9.1,11.2,14.4,6.5c2.8-2.4,2.1-7-2.4-15.9C372.5,16.6,327.6-4.9,285,4z M307.3,53.9
	c-3.1,1.1-5.6,5.4-4.9,8.2c0.8,3.1,13.9,15.7,16.4,15.7c3.6,0,7.2-3.8,7.2-7.6c0-2.9-1-4.5-5.6-9.3
	C314.4,54.5,310.8,52.6,307.3,53.9z M320,109.7c-3.9,3.9-2.7,7.6,4.8,15.1c7.7,7.7,10.6,8.5,14.7,4.4c4.2-4.2,3.3-7-4.4-14.7
	C327.7,106.9,323.9,105.8,320,109.7z M253.5,119.7c-3.5,3.9-2.4,7.5,4.6,14.5c3.5,3.5,7.2,6.7,8.2,7c2.9,0.9,7.5-1.5,8.5-4.5
	c1.4-3.9-0.5-7.6-7.1-13.8C261.4,117,256.9,115.9,253.5,119.7z M387.5,175c-4.1,4.1-3.3,6.8,4.3,14.6c5.6,5.7,7.3,6.9,10,6.9
	c4.2,0,7.2-3,7.2-7.3c0-2.7-1.2-4.4-6.8-10C394.6,171.7,391.7,170.8,387.5,175z M225.6,181.6c-2,1.5-2.6,3-2.6,5.6c0,3,1,4.5,6.5,10
	c5.9,5.9,6.8,6.4,10.2,6.1c4.8-0.4,8-4.3,6.9-8.5c-0.4-1.6-3.6-5.6-7.1-9.1C232.5,178.9,230,178.2,225.6,181.6z M376.1,235
	c-2.4,3.1-2.6,4.5-0.7,8.2c2,3.9,10.9,11.9,14.1,12.7c4,1,7.9-2.3,8.3-7c0.3-3.4-0.3-4.2-6.2-10.1c-5.5-5.5-7-6.5-10-6.5
	C379.1,232.4,377.7,233.1,376.1,235z M250.8,332.2c14.9,34.9,27.2,63.7,27.2,64.1c0,0.4-11.3,0.7-25,0.7h-25v-15.4
	c0-13.5-0.2-15.6-1.9-17.7c-1.4-1.7-2.9-2.3-5.6-2.3c-2.7,0-4.3,0.6-5.6,2.3c-1.6,2-1.9,4.1-1.9,17.7v15.4h-23
	c-12.7,0-23-0.3-23-0.6c0-2,55.4-129.1,56-128.5C223.4,268.5,235.9,297.4,250.8,332.2z M360.6,355.1c-18.5,43-20,47.4-17.5,52
	c2.4,4.5,5.2,4.9,34.4,4.9h27.6v17.5V447h-46.5H312v-45.3v-45.3l4.8-0.7c17.8-2.7,34.2-11.2,46.6-24.4c6.1-6.4,7.8-8.7,13.1-17.3
	c1-1.6,1.9-2.6,2.2-2.4C378.9,311.8,370.8,331.4,360.6,355.1z M283.1,353.6c2.4,0.8,6.6,1.7,9.2,2.1l4.8,0.6l-0.3,45.1l-0.3,45.1
	l-34.3,0.3L228,447v-17.4v-17.4l30.9-0.3l30.9-0.3l2.6-2.4c5.1-4.8,4.7-6.8-5.9-31.7c-5.4-12.5-9.9-23.3-10.2-24
	C275.6,351.8,277.6,351.8,283.1,353.6z M154,387.6c0,0.3-1.2,3.4-2.6,6.9c-2.9,7.2-2.7,9.9,1.1,14.3l2.4,2.8l29.1,0.3l29.1,0.3v17.4
	V447h-38h-38V417v-29.9h8.5C150.1,387.1,154,387.3,154,387.6z"/>
<defs>
	<filter id="Adobe_OpacityMaskFilter" filterUnits="userSpaceOnUse" x="3" y="2" width="512" height="460">
		<feColorMatrix  type="matrix" values="1 0 0 0 0  0 1 0 0 0  0 0 1 0 0  0 0 0 1 0"/>
	</filter>
</defs>
<mask maskUnits="userSpaceOnUse" x="3" y="2" width="512" height="460" id="path-1-outside-1_103:2115_00000052792933338950006130000006096059322111916673_">
	<rect class="st1" width="518" height="464"/>
	<path class="st2" d="M285,4c-38.3,8-66.8,35.4-76.6,73.7c-1.5,5.9-1.9,11-1.9,24.5v17l-7.3,2.8c-10.1,3.9-24,13.3-32.7,22.1
		l-7.3,7.3l-10.6-16.8c-11.5-18.2-13.4-19.9-20.1-18.6c-2.3,0.4-4.3,1.8-5.9,3.9c-4.1,5.4-57.9,90.8-59.2,94
		c-1.7,4.2-0.8,8.1,2.7,11c2.6,2.2,3.9,2.5,10.9,2.5c4.4,0,7.9,0.2,7.9,0.5c0,0.3-8.3,14.1-18.5,30.8c-10.2,16.7-19,31.6-19.6,33.1
		c-1.4,3.7-0.4,7.6,2.6,10.5c2.1,2,3.8,2.4,11.5,2.7c6.3,0.3,8.9,0.8,8.6,1.6c-0.2,0.6-9.1,15.7-19.6,33.5s-19.4,33.6-19.7,35.1
		c-0.3,1.5,0,4.2,0.7,5.9c2.2,5.4,4.7,5.9,27.3,5.9c19.1,0,20.6-0.1,23.1-2.1c3.4-2.7,3.6-7.9,0.4-10.9c-2-1.9-3.5-2-17.5-2
		c-8.4,0-15.3-0.2-15.3-0.4c0-0.2,8.6-14.9,19.2-32.7c10.5-17.8,19.7-33.8,20.4-35.6c1.5-4.3,0.9-7.5-2.2-10.3
		c-2.1-2-3.8-2.4-11.8-2.8l-9.4-0.5l19.4-31.9c21.3-35,21.9-36.5,17-42.1c-2.2-2.6-3-2.8-11-3.2c-4.7-0.2-8.6-0.5-8.6-0.7
		c0-0.2,11-17.7,24.4-38.8l24.4-38.5l24.6,38.7l24.6,38.7l-8.5,0.5c-7.5,0.5-8.8,0.8-11.2,3.2c-5.3,5.3-4.7,6.9,16.1,41.1
		c10.4,17,19.1,31.5,19.3,32.2c0.4,1-1.3,1.3-7.7,1.3c-9.5,0-13.2,1.5-15,5.9c-1.7,4-0.8,6.8,5,16.6l4.9,8.2L172,346.4l-10.9,25.3
		l-25.5,0.5c-28.7,0.6-29.6,0.8-29.6,7.4c0,5,3.7,7.6,10.7,7.6h5.4l-0.3,29.7l-0.3,29.7l-57.2,0.3L7,447L5,449.6
		c-3.5,4.5-2.2,9.2,3.3,11.3c3.8,1.5,497.6,1.5,501.4,0c5.5-2.1,6.9-6.8,3.3-11.3L511,447l-45.2-0.3l-45.2-0.3l-0.3-17.2L420,412h30
		c19.4,0,30.8-0.4,32.4-1.1c3-1.3,5.7-5.9,5.7-9.4c0-3.7-17.6-44.6-20.1-46.7c-4.4-3.7-11.9-0.4-11.9,5.1c0,1.2,3.3,10.1,7.4,19.6
		l7.4,17.4h-25.4h-25.4v-15.5c0-15.1-0.1-15.6-2.5-18c-2.7-2.7-4.3-3-7.9-1.3c-3.9,1.8-4.7,4.9-4.7,20.4v14.4H382
		c-13,0-22.9-0.4-22.8-0.9c4.4-11.8,55.5-128.6,56-128.1c0.4,0.4,6.3,13.7,13.2,29.7c6.8,15.9,13,30.1,13.7,31.6
		c3.3,7.2,14,4.8,14-3c0-1.1-3.8-10.8-8.5-21.7l-8.5-19.7l5.9-6.3c16-17.1,25.1-40.9,25.1-65.7c0-19-4.7-36.1-14.3-51.6
		c-5.9-9.6-17.6-22.3-26.3-28.4c-5.7-4.1-22-12.5-26.2-13.6c-1.8-0.5-1.9-1-1.2-5.4c1.2-7,1.1-15.2-0.1-17.5c-1.5-2.9-5.7-4.2-9-2.9
		c-3.2,1.3-4.9,4.7-4.9,9.7c0,2-0.7,7.8-1.7,12.9c-2.2,12.3-1.7,13.1,10.9,17.2c34.9,11.6,57.8,42.6,57.8,78.4
		c0,15.9-2.1,25.5-8.6,38.4c-3.3,6.6-12,19-13.4,19c-0.4,0-2.7-4.6-5.1-10.2c-5.5-13.1-6.4-14.4-10.5-15.7c-2.7-0.9-4-0.8-6.4,0.5
		c-3.7,1.9-4.2,2.8-15.3,29c-4.9,11.5-9.3,21.3-9.8,21.8c-0.5,0.5-3.9,1.1-7.7,1.4c-3.8,0.3-7.8,1.1-9,1.9c-1.2,0.8-3.9,4.6-6,8.6
		c-8.8,16.8-28.7,31.2-47.1,34.1l-4.3,0.7v-43.1v-43.1l19-19.1c20.7-20.7,21.5-22,16.6-27c-4.7-4.7-6.6-3.7-21.7,11.2L312,233.8
		v-19.7c0-19.6,0-19.7-2.5-22.2c-1.4-1.3-3.6-2.5-5-2.5c-1.4,0-3.7,1.1-5,2.5l-2.5,2.4v45.2v45.2l-13.3-13.2
		c-14.6-14.4-16.5-15.4-21.2-10.7c-4.9,4.9-4.1,6.3,16.1,26.5l18.5,18.6v17.8v17.8l-4.2-0.7c-6-1-14-3.9-20.8-7.5l-5.9-3.1
		l-17.6-41.1c-10.2-23.8-18.6-42.1-20-43.5c-1.7-1.7-3.5-2.4-6-2.4c-5.1,0-7.5,3-13.5,17.2c-2.9,6.8-5.6,11.9-5.9,11.5
		s-6.6-10.5-13.8-22.4l-13.1-21.6l9-0.3c8.4-0.3,9.2-0.5,11.4-3.1c4.7-5.5,3.9-7.6-12.4-33.5c-8.2-12.9-15.2-24-15.5-24.7
		c-0.9-1.6,12.4-15.5,19.8-20.7c8-5.7,13.2-8.2,24.1-12c11.7-4,12.3-5.1,10-16.8c-2.3-11-1.5-29.2,1.6-39.2
		c3.4-10.8,8.5-20.5,15.5-29.1c11-13.6,24.7-22.7,42-28c8-2.4,10.5-2.7,22.5-2.7c10.5,0,15.3,0.5,21.5,2.2
		c23.4,6.2,43.1,22.5,54.4,44.8c4.6,9.2,9.1,11.2,14.4,6.5c2.8-2.4,2.1-7-2.4-15.9C372.5,16.6,327.6-4.9,285,4z M307.3,53.9
		c-3.1,1.1-5.6,5.4-4.9,8.2c0.8,3.1,13.9,15.7,16.4,15.7c3.6,0,7.2-3.8,7.2-7.6c0-2.9-1-4.5-5.6-9.3
		C314.4,54.5,310.8,52.6,307.3,53.9z M320,109.7c-3.9,3.9-2.7,7.6,4.8,15.1c7.7,7.7,10.6,8.5,14.7,4.4c4.2-4.2,3.3-7-4.4-14.7
		C327.7,106.9,323.9,105.8,320,109.7z M253.5,119.7c-3.5,3.9-2.4,7.5,4.6,14.5c3.5,3.5,7.2,6.7,8.2,7c2.9,0.9,7.5-1.5,8.5-4.5
		c1.4-3.9-0.5-7.6-7.1-13.8C261.4,117,256.9,115.9,253.5,119.7z M387.5,175c-4.1,4.1-3.3,6.8,4.3,14.6c5.6,5.7,7.3,6.9,10,6.9
		c4.2,0,7.2-3,7.2-7.3c0-2.7-1.2-4.4-6.8-10C394.6,171.7,391.7,170.8,387.5,175z M225.6,181.6c-2,1.5-2.6,3-2.6,5.6
		c0,3,1,4.5,6.5,10c5.9,5.9,6.8,6.4,10.2,6.1c4.8-0.4,8-4.3,6.9-8.5c-0.4-1.6-3.6-5.6-7.1-9.1C232.5,178.9,230,178.2,225.6,181.6z
		 M376.1,235c-2.4,3.1-2.6,4.5-0.7,8.2c2,3.9,10.9,11.9,14.1,12.7c4,1,7.9-2.3,8.3-7c0.3-3.4-0.3-4.2-6.2-10.1
		c-5.5-5.5-7-6.5-10-6.5C379.1,232.4,377.7,233.1,376.1,235z M250.8,332.2c14.9,34.9,27.2,63.7,27.2,64.1c0,0.4-11.3,0.7-25,0.7h-25
		v-15.4c0-13.5-0.2-15.6-1.9-17.7c-1.4-1.7-2.9-2.3-5.6-2.3c-2.7,0-4.3,0.6-5.6,2.3c-1.6,2-1.9,4.1-1.9,17.7v15.4h-23
		c-12.7,0-23-0.3-23-0.6c0-2,55.4-129.1,56-128.5C223.4,268.5,235.9,297.4,250.8,332.2z M360.6,355.1c-18.5,43-20,47.4-17.5,52
		c2.4,4.5,5.2,4.9,34.4,4.9h27.6v17.5V447h-46.5H312v-45.3v-45.3l4.8-0.7c17.8-2.7,34.2-11.2,46.6-24.4c6.1-6.4,7.8-8.7,13.1-17.3
		c1-1.6,1.9-2.6,2.2-2.4C378.9,311.8,370.8,331.4,360.6,355.1z M283.1,353.6c2.4,0.8,6.6,1.7,9.2,2.1l4.8,0.6l-0.3,45.1l-0.3,45.1
		l-34.3,0.3L228,447v-17.4v-17.4l30.9-0.3l30.9-0.3l2.6-2.4c5.1-4.8,4.7-6.8-5.9-31.7c-5.4-12.5-9.9-23.3-10.2-24
		C275.6,351.8,277.6,351.8,283.1,353.6z M154,387.6c0,0.3-1.2,3.4-2.6,6.9c-2.9,7.2-2.7,9.9,1.1,14.3l2.4,2.8l29.1,0.3l29.1,0.3
		v17.4V447h-38h-38V417v-29.9h8.5C150.1,387.1,154,387.3,154,387.6z"/>
</mask>
<path class="st3" d="M285,4c-38.3,8-66.8,35.4-76.6,73.7c-1.5,5.9-1.9,11-1.9,24.5v17l-7.3,2.8c-10.1,3.9-24,13.3-32.7,22.1
	l-7.3,7.3l-10.6-16.8c-11.5-18.2-13.4-19.9-20.1-18.6c-2.3,0.4-4.3,1.8-5.9,3.9c-4.1,5.4-57.9,90.8-59.2,94c-1.7,4.2-0.8,8.1,2.7,11
	c2.6,2.2,3.9,2.5,10.9,2.5c4.4,0,7.9,0.2,7.9,0.5c0,0.3-8.3,14.1-18.5,30.8c-10.2,16.7-19,31.6-19.6,33.1c-1.4,3.7-0.4,7.6,2.6,10.5
	c2.1,2,3.8,2.4,11.5,2.7c6.3,0.3,8.9,0.8,8.6,1.6c-0.2,0.6-9.1,15.7-19.6,33.5s-19.4,33.6-19.7,35.1c-0.3,1.5,0,4.2,0.7,5.9
	c2.2,5.4,4.7,5.9,27.3,5.9c19.1,0,20.6-0.1,23.1-2.1c3.4-2.7,3.6-7.9,0.4-10.9c-2-1.9-3.5-2-17.5-2c-8.4,0-15.3-0.2-15.3-0.4
	c0-0.2,8.6-14.9,19.2-32.7c10.5-17.8,19.7-33.8,20.4-35.6c1.5-4.3,0.9-7.5-2.2-10.3c-2.1-2-3.8-2.4-11.8-2.8l-9.4-0.5l19.4-31.9
	c21.3-35,21.9-36.5,17-42.1c-2.2-2.6-3-2.8-11-3.2c-4.7-0.2-8.6-0.5-8.6-0.7c0-0.2,11-17.7,24.4-38.8l24.4-38.5l24.6,38.7l24.6,38.7
	l-8.5,0.5c-7.5,0.5-8.8,0.8-11.2,3.2c-5.3,5.3-4.7,6.9,16.1,41.1c10.4,17,19.1,31.5,19.3,32.2c0.4,1-1.3,1.3-7.7,1.3
	c-9.5,0-13.2,1.5-15,5.9c-1.7,4-0.8,6.8,5,16.6l4.9,8.2L172,346.4l-10.9,25.3l-25.5,0.5c-28.7,0.6-29.6,0.8-29.6,7.4
	c0,5,3.7,7.6,10.7,7.6h5.4l-0.3,29.7l-0.3,29.7l-57.2,0.3L7,447L5,449.6c-3.5,4.5-2.2,9.2,3.3,11.3c3.8,1.5,497.6,1.5,501.4,0
	c5.5-2.1,6.9-6.8,3.3-11.3L511,447l-45.2-0.3l-45.2-0.3l-0.3-17.2L420,412h30c19.4,0,30.8-0.4,32.4-1.1c3-1.3,5.7-5.9,5.7-9.4
	c0-3.7-17.6-44.6-20.1-46.7c-4.4-3.7-11.9-0.4-11.9,5.1c0,1.2,3.3,10.1,7.4,19.6l7.4,17.4h-25.4h-25.4v-15.5c0-15.1-0.1-15.6-2.5-18
	c-2.7-2.7-4.3-3-7.9-1.3c-3.9,1.8-4.7,4.9-4.7,20.4v14.4H382c-13,0-22.9-0.4-22.8-0.9c4.4-11.8,55.5-128.6,56-128.1
	c0.4,0.4,6.3,13.7,13.2,29.7c6.8,15.9,13,30.1,13.7,31.6c3.3,7.2,14,4.8,14-3c0-1.1-3.8-10.8-8.5-21.7l-8.5-19.7l5.9-6.3
	c16-17.1,25.1-40.9,25.1-65.7c0-19-4.7-36.1-14.3-51.6c-5.9-9.6-17.6-22.3-26.3-28.4c-5.7-4.1-22-12.5-26.2-13.6
	c-1.8-0.5-1.9-1-1.2-5.4c1.2-7,1.1-15.2-0.1-17.5c-1.5-2.9-5.7-4.2-9-2.9c-3.2,1.3-4.9,4.7-4.9,9.7c0,2-0.7,7.8-1.7,12.9
	c-2.2,12.3-1.7,13.1,10.9,17.2c34.9,11.6,57.8,42.6,57.8,78.4c0,15.9-2.1,25.5-8.6,38.4c-3.3,6.6-12,19-13.4,19
	c-0.4,0-2.7-4.6-5.1-10.2c-5.5-13.1-6.4-14.4-10.5-15.7c-2.7-0.9-4-0.8-6.4,0.5c-3.7,1.9-4.2,2.8-15.3,29
	c-4.9,11.5-9.3,21.3-9.8,21.8c-0.5,0.5-3.9,1.1-7.7,1.4c-3.8,0.3-7.8,1.1-9,1.9c-1.2,0.8-3.9,4.6-6,8.6
	c-8.8,16.8-28.7,31.2-47.1,34.1l-4.3,0.7v-43.1v-43.1l19-19.1c20.7-20.7,21.5-22,16.6-27c-4.7-4.7-6.6-3.7-21.7,11.2L312,233.8
	v-19.7c0-19.6,0-19.7-2.5-22.2c-1.4-1.3-3.6-2.5-5-2.5c-1.4,0-3.7,1.1-5,2.5l-2.5,2.4v45.2v45.2l-13.3-13.2
	c-14.6-14.4-16.5-15.4-21.2-10.7c-4.9,4.9-4.1,6.3,16.1,26.5l18.5,18.6v17.8v17.8l-4.2-0.7c-6-1-14-3.9-20.8-7.5l-5.9-3.1
	l-17.6-41.1c-10.2-23.8-18.6-42.1-20-43.5c-1.7-1.7-3.5-2.4-6-2.4c-5.1,0-7.5,3-13.5,17.2c-2.9,6.8-5.6,11.9-5.9,11.5
	s-6.6-10.5-13.8-22.4l-13.1-21.6l9-0.3c8.4-0.3,9.2-0.5,11.4-3.1c4.7-5.5,3.9-7.6-12.4-33.5c-8.2-12.9-15.2-24-15.5-24.7
	c-0.9-1.6,12.4-15.5,19.8-20.7c8-5.7,13.2-8.2,24.1-12c11.7-4,12.3-5.1,10-16.8c-2.3-11-1.5-29.2,1.6-39.2
	c3.4-10.8,8.5-20.5,15.5-29.1c11-13.6,24.7-22.7,42-28c8-2.4,10.5-2.7,22.5-2.7c10.5,0,15.3,0.5,21.5,2.2
	c23.4,6.2,43.1,22.5,54.4,44.8c4.6,9.2,9.1,11.2,14.4,6.5c2.8-2.4,2.1-7-2.4-15.9C372.5,16.6,327.6-4.9,285,4z M307.3,53.9
	c-3.1,1.1-5.6,5.4-4.9,8.2c0.8,3.1,13.9,15.7,16.4,15.7c3.6,0,7.2-3.8,7.2-7.6c0-2.9-1-4.5-5.6-9.3
	C314.4,54.5,310.8,52.6,307.3,53.9z M320,109.7c-3.9,3.9-2.7,7.6,4.8,15.1c7.7,7.7,10.6,8.5,14.7,4.4c4.2-4.2,3.3-7-4.4-14.7
	C327.7,106.9,323.9,105.8,320,109.7z M253.5,119.7c-3.5,3.9-2.4,7.5,4.6,14.5c3.5,3.5,7.2,6.7,8.2,7c2.9,0.9,7.5-1.5,8.5-4.5
	c1.4-3.9-0.5-7.6-7.1-13.8C261.4,117,256.9,115.9,253.5,119.7z M387.5,175c-4.1,4.1-3.3,6.8,4.3,14.6c5.6,5.7,7.3,6.9,10,6.9
	c4.2,0,7.2-3,7.2-7.3c0-2.7-1.2-4.4-6.8-10C394.6,171.7,391.7,170.8,387.5,175z M225.6,181.6c-2,1.5-2.6,3-2.6,5.6c0,3,1,4.5,6.5,10
	c5.9,5.9,6.8,6.4,10.2,6.1c4.8-0.4,8-4.3,6.9-8.5c-0.4-1.6-3.6-5.6-7.1-9.1C232.5,178.9,230,178.2,225.6,181.6z M376.1,235
	c-2.4,3.1-2.6,4.5-0.7,8.2c2,3.9,10.9,11.9,14.1,12.7c4,1,7.9-2.3,8.3-7c0.3-3.4-0.3-4.2-6.2-10.1c-5.5-5.5-7-6.5-10-6.5
	C379.1,232.4,377.7,233.1,376.1,235z M250.8,332.2c14.9,34.9,27.2,63.7,27.2,64.1c0,0.4-11.3,0.7-25,0.7h-25v-15.4
	c0-13.5-0.2-15.6-1.9-17.7c-1.4-1.7-2.9-2.3-5.6-2.3c-2.7,0-4.3,0.6-5.6,2.3c-1.6,2-1.9,4.1-1.9,17.7v15.4h-23
	c-12.7,0-23-0.3-23-0.6c0-2,55.4-129.1,56-128.5C223.4,268.5,235.9,297.4,250.8,332.2z M360.6,355.1c-18.5,43-20,47.4-17.5,52
	c2.4,4.5,5.2,4.9,34.4,4.9h27.6v17.5V447h-46.5H312v-45.3v-45.3l4.8-0.7c17.8-2.7,34.2-11.2,46.6-24.4c6.1-6.4,7.8-8.7,13.1-17.3
	c1-1.6,1.9-2.6,2.2-2.4C378.9,311.8,370.8,331.4,360.6,355.1z M283.1,353.6c2.4,0.8,6.6,1.7,9.2,2.1l4.8,0.6l-0.3,45.1l-0.3,45.1
	l-34.3,0.3L228,447v-17.4v-17.4l30.9-0.3l30.9-0.3l2.6-2.4c5.1-4.8,4.7-6.8-5.9-31.7c-5.4-12.5-9.9-23.3-10.2-24
	C275.6,351.8,277.6,351.8,283.1,353.6z M154,387.6c0,0.3-1.2,3.4-2.6,6.9c-2.9,7.2-2.7,9.9,1.1,14.3l2.4,2.8l29.1,0.3l29.1,0.3v17.4
	V447h-38h-38V417v-29.9h8.5C150.1,387.1,154,387.3,154,387.6z"/>
</svg>
