<?xml version="1.0" encoding="utf-8"?>
<!-- Generator: Adobe Illustrator 27.1.1, SVG Export Plug-In . SVG Version: 6.00 Build 0)  -->
<svg version="1.1" id="Слой_1" xmlns="http://www.w3.org/2000/svg" xmlns:xlink="http://www.w3.org/1999/xlink" x="0px" y="0px"
	 viewBox="0 0 388 388" style="enable-background:new 0 0 388 388;" xml:space="preserve">
<style type="text/css">
	.st0{fill-rule:evenodd;clip-rule:evenodd;fill:#FFFFFF;filter:url(#Adobe_OpacityMaskFilter);}
	
		.st1{mask:url(#path-1-inside-1_103:2119_00000075873508846496585170000012772256183954480308_);fill-rule:evenodd;clip-rule:evenodd;fill:#FFFFFF;}
</style>
<defs>
	<filter id="Adobe_OpacityMaskFilter" filterUnits="userSpaceOnUse" x="0" y="0" width="388" height="388">
		<feColorMatrix  type="matrix" values="1 0 0 0 0  0 1 0 0 0  0 0 1 0 0  0 0 0 1 0"/>
	</filter>
</defs>
<mask maskUnits="userSpaceOnUse" x="0" y="0" width="388" height="388" id="path-1-inside-1_103:2119_00000075873508846496585170000012772256183954480308_">
	<path class="st0" d="M237.5,1c-27.5,5.7-48.8,21.7-60.2,45c-3.5,7.2-4,8.8-4,13.6c0,4.7,0.5,6.5,3.6,13c2,4.1,5.3,9.8,7.3,12.7
		c4.1,5.8,14.2,15.7,20.2,19.8c6.6,4.5,19.1,10.1,28,12.5c7.5,2,10,2.2,21.9,2.2c11.8,0,14.5-0.3,21.6-2.2
		c14.1-3.8,26.3-10.1,37.2-19.3l3.1-2.6l4.8,3.9c9.9,8.1,20.1,11.7,32.9,11.8c9.7,0,15.5-1.4,24.3-6c7.2-3.8,9.9-6.8,9.9-11.2
		c0-2.9-0.6-3.9-4.9-8.2c-15.8-15.7-16-35.3-0.6-51.7c4.9-5.2,5.5-6.3,5.5-9.2c0-4.1-3.1-7.5-10-11c-9.3-4.6-13.2-5.6-24.2-5.6
		c-8.4,0-11.1,0.3-15.7,1.9c-6.8,2.3-14.4,6.8-18.7,10.9l-3.2,3.1l-2.7-2.6c-9.7-9-22.6-15.9-36.8-19.8C268.2-0.1,246.1-0.8,237.5,1
		z M266.9,17.9c15,2.6,28.5,9.8,38.6,20.5c6.3,6.7,7.9,7.7,11.8,7.7c3.4,0,4.6-0.9,8.2-6.1c8.3-12.2,25-17.7,38.8-12.8
		c0.8,0.3,0.6,1.1-1,3.1c-3.1,4.1-6.3,11-7.8,16.5c-1.6,5.9-1.8,19.4-0.3,25.1c1.3,5.4,5,13.5,7.9,17.3c2.8,3.7,2,4.3-7,4.9
		c-12.9,0.9-23.7-4.5-31.4-15.5c-2.6-3.8-7-5.9-10.2-4.9c-1,0.3-4.9,3.7-8.7,7.5c-15.7,15.9-32,22.3-54.8,21.4
		c-12.8-0.5-18.7-2.1-30.4-8.1c-10.1-5.2-22.1-16.9-26.8-26.2c-1.7-3.4-3.1-7.1-3.1-8.3c0-5.5,9.7-19.8,18.2-26.8
		C224.9,19.8,246.1,14.3,266.9,17.9z M224.7,52.2c-7.9,4.3-5.1,15.9,3.8,15.9c2.8,0,4-0.5,6-2.5C241.1,59,232.9,47.7,224.7,52.2z
		 M70.7,134.1c-31.4,3.6-59.8,25.3-69.3,53c-2.2,6.3-2,8.8,1.3,16.8C12,226.2,32,243.6,57,250.9c28.3,8.2,60.8,1.2,82.2-17.9
		l4.2-3.7l4.4,4c8.3,7.6,20.4,12.1,32.9,12.1c8.8,0,14.5-1.1,21.6-4.3c7.1-3.2,10.9-6.2,12.4-9.7c1.6-3.8,0.5-6.3-5.5-12.6
		c-5.9-6.1-8.9-11.8-10.3-19.3c-2-10.9,1.5-21.4,10.3-30.5c6-6.3,7.1-8.8,5.5-12.6c-1.4-3.5-5.3-6.5-12.4-9.7
		c-7.1-3.2-12.8-4.3-21.7-4.3c-12.5,0-24.2,4.3-32.6,12l-4.4,4l-4.5-3.8c-13.5-11.5-29.8-18.5-48.1-20.6
		C82.8,133,79.7,133.1,70.7,134.1z M95.9,152.2c14.5,3,27,9.9,37.4,20.8c5.5,5.7,7,6.8,9.9,7.2c3.8,0.5,4.2,0.2,12.6-9.8
		c7.1-8.4,20.2-12.7,31.6-10.3c2.7,0.6,4.8,1.2,4.8,1.4c0,0.2-0.9,1.6-2,3.1c-5.8,7.8-8.9,18-8.9,29.3c0,11.4,3.1,21.5,9,29.4
		c1.2,1.5,1.9,3,1.7,3.2c-0.2,0.2-2.8,0.8-5.6,1.4c-6.6,1.2-14.3,0-20.9-3.2c-4.6-2.3-8.3-5.5-15.2-13.4c-3.4-3.9-3.7-4-7-3.6
		c-3,0.4-4.4,1.4-10,7.2c-10.7,11.1-23,17.9-38.1,20.9c-9.2,1.9-23.9,1.3-33-1.3c-18.6-5.3-34-17.6-41.9-33.6
		c-2.8-5.6-3-6.4-2.1-9.3c2.9-9.5,12.7-21.4,23.7-28.7C57.5,152.4,77.6,148.4,95.9,152.2z M50.2,187.5c-4,3.7-4,9.1,0,12.8
		c5.2,4.9,13.8,0.9,13.8-6.4C64,186.6,55.5,182.6,50.2,187.5z M241.6,268.3c-13,1.9-28.2,8-38.8,15.5c-11.7,8.3-22.7,22.2-27.4,34.3
		c-3.1,8-3.1,10.8-0.4,18.1c9.9,26.2,35.5,46.2,65.6,51c9.2,1.5,27.1,0.7,35.7-1.6c14.2-3.7,27.9-11,37.3-19.8l2.7-2.6l3.2,3.1
		c4.3,4.1,11.9,8.6,18.7,10.9c4.6,1.6,7.4,1.9,15.7,1.9c10.9,0,14.9-0.9,24.2-5.6c6.9-3.5,10-6.9,10-11c0-3-0.6-4-5.5-9.2
		c-7.1-7.6-10.4-14.5-11.1-22.9c-0.8-10.9,2.9-20,11.7-28.7c4.3-4.3,4.9-5.3,4.9-8.2c0-4.4-2.7-7.5-9.9-11.2c-8.8-4.6-14.6-6-24.3-6
		c-12.8,0-23,3.7-32.9,11.8c-3.2,2.6-5.1,3.6-5.7,3.1c-0.5-0.4-3.2-2.5-5.8-4.6C291,271.8,265.3,264.9,241.6,268.3z M269.7,286.4
		c13.6,2.8,25.2,9.2,35.2,19.4c8,8.1,9.7,9.2,13.6,8.5c2.2-0.4,3.6-1.6,6.1-4.9c4.5-6.1,9.6-10.5,15.2-13.1c4.2-2,5.8-2.2,13.6-2.2
		c4.9,0,9.5,0.4,10.3,0.9c1.4,0.8,1.3,1.1-0.7,3.8c-2.8,3.7-6.5,11.9-7.9,17.3c-1.4,5.8-1.2,19.2,0.3,25.1
		c1.5,5.5,4.7,12.4,7.7,16.4c1.1,1.5,1.7,2.9,1.4,3.1c-0.4,0.2-2.9,0.8-5.6,1.4c-3.8,0.8-6.2,0.8-10.5,0
		c-10.1-1.8-15.6-5.3-25.1-16.3c-2.8-3.2-3.9-3.9-6.2-3.9c-3.9,0-5.4,1-11.7,7.7c-32.2,34.2-91.7,26.4-112.5-14.7
		c-1.3-2.7-2.4-5.8-2.4-6.9c0-4.5,6.1-14.3,13.9-22.1c10.2-10.3,21.2-16.4,34.5-19.3C246.2,284.8,261.8,284.8,269.7,286.4z
		 M222.6,322.2c-6.9,6.9,1.4,17.7,10.1,13.2c7.6-3.9,4.5-15.7-4.1-15.7C225.8,319.7,224.5,320.2,222.6,322.2z"/>
</mask>
<path class="st1" d="M237.5,1c-27.5,5.7-48.8,21.7-60.2,45c-3.5,7.2-4,8.8-4,13.6c0,4.7,0.5,6.5,3.6,13c2,4.1,5.3,9.8,7.3,12.7
	c4.1,5.8,14.2,15.7,20.2,19.8c6.6,4.5,19.1,10.1,28,12.5c7.5,2,10,2.2,21.9,2.2c11.8,0,14.5-0.3,21.6-2.2
	c14.1-3.8,26.3-10.1,37.2-19.3l3.1-2.6l4.8,3.9c9.9,8.1,20.1,11.7,32.9,11.8c9.7,0,15.5-1.4,24.3-6c7.2-3.8,9.9-6.8,9.9-11.2
	c0-2.9-0.6-3.9-4.9-8.2c-15.8-15.7-16-35.3-0.6-51.7c4.9-5.2,5.5-6.3,5.5-9.2c0-4.1-3.1-7.5-10-11c-9.3-4.6-13.2-5.6-24.2-5.6
	c-8.4,0-11.1,0.3-15.7,1.9c-6.8,2.3-14.4,6.8-18.7,10.9l-3.2,3.1l-2.7-2.6c-9.7-9-22.6-15.9-36.8-19.8C268.2-0.1,246.1-0.8,237.5,1z
	 M266.9,17.9c15,2.6,28.5,9.8,38.6,20.5c6.3,6.7,7.9,7.7,11.8,7.7c3.4,0,4.6-0.9,8.2-6.1c8.3-12.2,25-17.7,38.8-12.8
	c0.8,0.3,0.6,1.1-1,3.1c-3.1,4.1-6.3,11-7.8,16.5c-1.6,5.9-1.8,19.4-0.3,25.1c1.3,5.4,5,13.5,7.9,17.3c2.8,3.7,2,4.3-7,4.9
	c-12.9,0.9-23.7-4.5-31.4-15.5c-2.6-3.8-7-5.9-10.2-4.9c-1,0.3-4.9,3.7-8.7,7.5c-15.7,15.9-32,22.3-54.8,21.4
	c-12.8-0.5-18.7-2.1-30.4-8.1c-10.1-5.2-22.1-16.9-26.8-26.2c-1.7-3.4-3.1-7.1-3.1-8.3c0-5.5,9.7-19.8,18.2-26.8
	C224.9,19.8,246.1,14.3,266.9,17.9z M224.7,52.2c-7.9,4.3-5.1,15.9,3.8,15.9c2.8,0,4-0.5,6-2.5C241.1,59,232.9,47.7,224.7,52.2z
	 M70.7,134.1c-31.4,3.6-59.8,25.3-69.3,53c-2.2,6.3-2,8.8,1.3,16.8C12,226.2,32,243.6,57,250.9c28.3,8.2,60.8,1.2,82.2-17.9l4.2-3.7
	l4.4,4c8.3,7.6,20.4,12.1,32.9,12.1c8.8,0,14.5-1.1,21.6-4.3c7.1-3.2,10.9-6.2,12.4-9.7c1.6-3.8,0.5-6.3-5.5-12.6
	c-5.9-6.1-8.9-11.8-10.3-19.3c-2-10.9,1.5-21.4,10.3-30.5c6-6.3,7.1-8.8,5.5-12.6c-1.4-3.5-5.3-6.5-12.4-9.7
	c-7.1-3.2-12.8-4.3-21.7-4.3c-12.5,0-24.2,4.3-32.6,12l-4.4,4l-4.5-3.8c-13.5-11.5-29.8-18.5-48.1-20.6
	C82.8,133,79.7,133.1,70.7,134.1z M95.9,152.2c14.5,3,27,9.9,37.4,20.8c5.5,5.7,7,6.8,9.9,7.2c3.8,0.5,4.2,0.2,12.6-9.8
	c7.1-8.4,20.2-12.7,31.6-10.3c2.7,0.6,4.8,1.2,4.8,1.4c0,0.2-0.9,1.6-2,3.1c-5.8,7.8-8.9,18-8.9,29.3c0,11.4,3.1,21.5,9,29.4
	c1.2,1.5,1.9,3,1.7,3.2c-0.2,0.2-2.8,0.8-5.6,1.4c-6.6,1.2-14.3,0-20.9-3.2c-4.6-2.3-8.3-5.5-15.2-13.4c-3.4-3.9-3.7-4-7-3.6
	c-3,0.4-4.4,1.4-10,7.2c-10.7,11.1-23,17.9-38.1,20.9c-9.2,1.9-23.9,1.3-33-1.3c-18.6-5.3-34-17.6-41.9-33.6c-2.8-5.6-3-6.4-2.1-9.3
	c2.9-9.5,12.7-21.4,23.7-28.7C57.5,152.4,77.6,148.4,95.9,152.2z M50.2,187.5c-4,3.7-4,9.1,0,12.8c5.2,4.9,13.8,0.9,13.8-6.4
	C64,186.6,55.5,182.6,50.2,187.5z M241.6,268.3c-13,1.9-28.2,8-38.8,15.5c-11.7,8.3-22.7,22.2-27.4,34.3c-3.1,8-3.1,10.8-0.4,18.1
	c9.9,26.2,35.5,46.2,65.6,51c9.2,1.5,27.1,0.7,35.7-1.6c14.2-3.7,27.9-11,37.3-19.8l2.7-2.6l3.2,3.1c4.3,4.1,11.9,8.6,18.7,10.9
	c4.6,1.6,7.4,1.9,15.7,1.9c10.9,0,14.9-0.9,24.2-5.6c6.9-3.5,10-6.9,10-11c0-3-0.6-4-5.5-9.2c-7.1-7.6-10.4-14.5-11.1-22.9
	c-0.8-10.9,2.9-20,11.7-28.7c4.3-4.3,4.9-5.3,4.9-8.2c0-4.4-2.7-7.5-9.9-11.2c-8.8-4.6-14.6-6-24.3-6c-12.8,0-23,3.7-32.9,11.8
	c-3.2,2.6-5.1,3.6-5.7,3.1c-0.5-0.4-3.2-2.5-5.8-4.6C291,271.8,265.3,264.9,241.6,268.3z M269.7,286.4c13.6,2.8,25.2,9.2,35.2,19.4
	c8,8.1,9.7,9.2,13.6,8.5c2.2-0.4,3.6-1.6,6.1-4.9c4.5-6.1,9.6-10.5,15.2-13.1c4.2-2,5.8-2.2,13.6-2.2c4.9,0,9.5,0.4,10.3,0.9
	c1.4,0.8,1.3,1.1-0.7,3.8c-2.8,3.7-6.5,11.9-7.9,17.3c-1.4,5.8-1.2,19.2,0.3,25.1c1.5,5.5,4.7,12.4,7.7,16.4
	c1.1,1.5,1.7,2.9,1.4,3.1c-0.4,0.2-2.9,0.8-5.6,1.4c-3.8,0.8-6.2,0.8-10.5,0c-10.1-1.8-15.6-5.3-25.1-16.3c-2.8-3.2-3.9-3.9-6.2-3.9
	c-3.9,0-5.4,1-11.7,7.7c-32.2,34.2-91.7,26.4-112.5-14.7c-1.3-2.7-2.4-5.8-2.4-6.9c0-4.5,6.1-14.3,13.9-22.1
	c10.2-10.3,21.2-16.4,34.5-19.3C246.2,284.8,261.8,284.8,269.7,286.4z M222.6,322.2c-6.9,6.9,1.4,17.7,10.1,13.2
	c7.6-3.9,4.5-15.7-4.1-15.7C225.8,319.7,224.5,320.2,222.6,322.2z"/>
</svg>
