<?xml version="1.0" encoding="utf-8"?>
<!-- Generator: Adobe Illustrator 27.1.1, SVG Export Plug-In . SVG Version: 6.00 Build 0)  -->
<svg version="1.1" id="Слой_1" xmlns="http://www.w3.org/2000/svg" xmlns:xlink="http://www.w3.org/1999/xlink" x="0px" y="0px"
	 viewBox="0 0 375 375" style="enable-background:new 0 0 375 375;" xml:space="preserve">
<style type="text/css">
	.st0{fill-rule:evenodd;clip-rule:evenodd;fill:#FFFFFF;filter:url(#Adobe_OpacityMaskFilter);}
	
		.st1{mask:url(#path-1-inside-1_103:2117_00000173132806302527689580000013374613444736799911_);fill-rule:evenodd;clip-rule:evenodd;fill:#FFFFFF;}
</style>
<defs>
	<filter id="Adobe_OpacityMaskFilter" filterUnits="userSpaceOnUse" x="0" y="0" width="375" height="375">
		<feColorMatrix  type="matrix" values="1 0 0 0 0  0 1 0 0 0  0 0 1 0 0  0 0 0 1 0"/>
	</filter>
</defs>
<mask maskUnits="userSpaceOnUse" x="0" y="0" width="375" height="375" id="path-1-inside-1_103:2117_00000173132806302527689580000013374613444736799911_">
	<path class="st0" d="M105.4,1.4c-5.5,2.9-19.3,19.1-28.2,33C72.5,42,64.4,57.4,62.1,63.6l-1.2,3.1H34.8c-24.7,0-26.2,0.1-29,1.5
		C2.6,69.8,0,74,0,77.7c0,3.5,2.4,7.5,5.7,9.3c2.8,1.6,3.5,1.6,25.3,1.6h22.4l0.5,2.2c0.8,3.8,7.7,13.4,14,19.6
		c3.4,3.3,6.1,6.2,6.1,6.3s-1.5,1.2-3.3,2.3c-8.4,4.9-18.1,16.5-22.2,26.3c-3.4,8.1-4,13.4-3.1,24.4c3.5,39.4,19.6,82.5,44.5,118.7
		c2.6,3.7,4.7,7.1,4.7,7.4c0,0.4-3.1,3.2-6.9,6.2c-14.5,11.7-25.2,23.1-29.4,31.4c-4.8,9.5-1.8,22.5,7.4,31.7
		c7.7,7.7,18.1,11.1,28,9.2c6.1-1.2,6-1.2,12.1,0c4,0.8,5.9,0.8,9.9,0c6.1-1.2,6-1.2,12.1,0c13.1,2.5,27.4-4.6,33.7-16.7
		c4.7-9,5.3-17.2,1.8-24.1c-4.2-8.3-15-19.8-29.2-31.3c-3.9-3.2-7.1-6-7.1-6.3c0-0.3,2.6-4.5,5.8-9.3
		c24.8-37.1,39.7-77.4,43.4-117.3c1.9-21.1-1.1-55-7-76.8l-1-3.8h19.7h19.7l0.5,2.2c0.8,3.8,7.7,13.4,14,19.6
		c3.4,3.3,6.1,6.2,6.1,6.3s-1.5,1.2-3.3,2.3c-8.4,4.9-18.1,16.5-22.2,26.3c-3.4,8.1-4,13.4-3.1,24.4c3.5,39.4,19.6,82.5,44.5,118.7
		c2.6,3.7,4.7,7.1,4.7,7.4c0,0.4-3.1,3.2-6.9,6.2c-14.5,11.7-25.2,23.1-29.4,31.4c-4.8,9.5-1.8,22.5,7.4,31.7
		c7.7,7.7,18.1,11.1,28,9.2c6.1-1.2,6-1.2,12.1,0c4,0.8,5.9,0.8,9.9,0c6.1-1.2,6-1.2,12.1,0c13.1,2.5,27.4-4.6,33.7-16.7
		c4.7-9,5.3-17.2,1.8-24.1c-4.2-8.3-15-19.8-29.2-31.3c-3.9-3.2-7.1-6-7.1-6.3c0-0.3,2.6-4.5,5.8-9.3c21-31.4,35.3-66.3,41.1-100.1
		c4.1-24.1,3.6-52.4-1.6-79.4c-1.5-7.7-3.2-15.1-4.1-17.3c-0.4-1,2.2-1.1,22-1.1c21.1,0,22.6-0.1,25.3-1.5c3.2-1.7,5.8-5.9,5.8-9.5
		c0-3.6-2.6-7.9-5.8-9.5c-2.7-1.4-4.3-1.5-28.9-1.5h-26l-1.2-3.1c-7.2-18.1-21.3-40.2-34.6-54.3C266.8-2.9,262.2-3,251.2,8.5
		c-7.1,7.5-14.1,16.4-20.1,25.9c-4.8,7.5-12.8,22.9-15.2,29.1l-1.2,3.1h-27.2h-27.2l-1.2-3.1c-7.2-18.1-21.3-40.2-34.6-54.3
		C115.8,0.1,111.4-1.7,105.4,1.4z M115.2,31.9c9.7,11.9,20.5,31.2,26.5,47.5c2.8,7.6,7.2,22.8,8.1,28.2l0.5,3.2l-19.3-0.3
		c-17.6-0.3-19.8-0.5-24.4-2c-10.4-3.4-17.2-7.6-24.9-15.4l-4.4-4.4h12.3c10.9,0,12.6-0.2,15.2-1.5c3.2-1.7,5.8-5.9,5.8-9.5
		c0-3.6-2.6-7.9-5.8-9.5c-2.4-1.2-4.3-1.5-11.3-1.5c-4.6,0-8.5-0.2-8.5-0.4c0-0.9,4.9-9.9,9-16.8c7-11.6,15.4-22.6,16.9-22.1
		C111.3,27.5,113.3,29.5,115.2,31.9z M269,31.9c9.7,11.9,20.5,31.2,26.5,47.5c2.8,7.6,7.2,22.8,8.1,28.2l0.5,3.2l-19.3-0.3
		c-17.6-0.3-19.8-0.5-24.4-2c-10.4-3.4-17.2-7.6-24.9-15.4l-4.4-4.4h12.3c10.9,0,12.6-0.2,15.2-1.5c3.2-1.7,5.8-5.9,5.8-9.5
		c0-3.6-2.6-7.9-5.8-9.5c-2.4-1.2-4.3-1.5-11.3-1.5c-4.6,0-8.5-0.2-8.5-0.4c0-0.9,4.9-9.9,9-16.8c7-11.6,15.4-22.6,16.9-22.1
		C265.1,27.5,267.1,29.5,269,31.9z M154.2,141.9c2.5,43-10.3,86.2-38.7,130.4c-2.4,3.7-4.6,6.8-4.9,6.8c-0.7,0-9.4-13.4-14.1-21.6
		c-16-28.3-26.1-58.6-29.1-87.4c-0.9-9.1-0.2-13.1,3.4-20.1C75,142,83,135.9,91.9,133.6c2.6-0.6,12.2-0.9,32.7-1l29-0.1L154.2,141.9
		z M308,141.9c2.5,43-10.3,86.2-38.7,130.4c-2.4,3.7-4.6,6.8-4.9,6.8c-0.7,0-9.4-13.4-14.1-21.6c-16-28.3-26.1-58.6-29.1-87.4
		c-0.9-9.1-0.2-13.1,3.4-20.1c4.1-7.9,12.1-14.1,21.1-16.3c2.6-0.6,12.2-0.9,32.7-1l29-0.1L308,141.9z M116,316.1
		c14.3,11.4,27.6,24.6,27.6,27.3c0,2.5-3.1,6.8-5.8,8.2c-3.7,1.9-5.9,1.9-9.7-0.1c-4-2-8.9-2.1-12.8,0c-3.8,2-5.3,2-9.2,0
		c-4-2-8.9-2.1-12.8,0c-3.8,2-6.1,2-9.8,0.1c-2.7-1.4-5.8-5.8-5.8-8.2c0-1.7,7.1-9.7,14.8-16.4c7.8-6.9,17.5-14.9,18.2-14.9
		C110.8,312.1,113.2,313.9,116,316.1z M269.8,316.1c14.3,11.4,27.6,24.6,27.6,27.3c0,2.5-3.1,6.8-5.8,8.2c-3.7,1.9-5.9,1.9-9.7-0.1
		c-4-2-8.9-2.1-12.8,0c-3.8,2-5.3,2-9.2,0c-4-2-8.9-2.1-12.8,0c-3.8,2-6.1,2-9.8,0.1c-2.7-1.4-5.8-5.8-5.8-8.2
		c0-1.7,7.1-9.7,14.8-16.4c7.8-6.9,17.5-14.9,18.2-14.9C264.6,312.1,267,313.9,269.8,316.1z"/>
</mask>
<path class="st1" d="M105.4,1.4c-5.5,2.9-19.3,19.1-28.2,33C72.5,42,64.4,57.4,62.1,63.6l-1.2,3.1H34.8c-24.7,0-26.2,0.1-29,1.5
	C2.6,69.8,0,74,0,77.7c0,3.5,2.4,7.5,5.7,9.3c2.8,1.6,3.5,1.6,25.3,1.6h22.4l0.5,2.2c0.8,3.8,7.7,13.4,14,19.6
	c3.4,3.3,6.1,6.2,6.1,6.3s-1.5,1.2-3.3,2.3c-8.4,4.9-18.1,16.5-22.2,26.3c-3.4,8.1-4,13.4-3.1,24.4c3.5,39.4,19.6,82.5,44.5,118.7
	c2.6,3.7,4.7,7.1,4.7,7.4c0,0.4-3.1,3.2-6.9,6.2c-14.5,11.7-25.2,23.1-29.4,31.4c-4.8,9.5-1.8,22.5,7.4,31.7
	c7.7,7.7,18.1,11.1,28,9.2c6.1-1.2,6-1.2,12.1,0c4,0.8,5.9,0.8,9.9,0c6.1-1.2,6-1.2,12.1,0c13.1,2.5,27.4-4.6,33.7-16.7
	c4.7-9,5.3-17.2,1.8-24.1c-4.2-8.3-15-19.8-29.2-31.3c-3.9-3.2-7.1-6-7.1-6.3c0-0.3,2.6-4.5,5.8-9.3c24.8-37.1,39.7-77.4,43.4-117.3
	c1.9-21.1-1.1-55-7-76.8l-1-3.8h19.7h19.7l0.5,2.2c0.8,3.8,7.7,13.4,14,19.6c3.4,3.3,6.1,6.2,6.1,6.3s-1.5,1.2-3.3,2.3
	c-8.4,4.9-18.1,16.5-22.2,26.3c-3.4,8.1-4,13.4-3.1,24.4c3.5,39.4,19.6,82.5,44.5,118.7c2.6,3.7,4.7,7.1,4.7,7.4
	c0,0.4-3.1,3.2-6.9,6.2c-14.5,11.7-25.2,23.1-29.4,31.4c-4.8,9.5-1.8,22.5,7.4,31.7c7.7,7.7,18.1,11.1,28,9.2c6.1-1.2,6-1.2,12.1,0
	c4,0.8,5.9,0.8,9.9,0c6.1-1.2,6-1.2,12.1,0c13.1,2.5,27.4-4.6,33.7-16.7c4.7-9,5.3-17.2,1.8-24.1c-4.2-8.3-15-19.8-29.2-31.3
	c-3.9-3.2-7.1-6-7.1-6.3c0-0.3,2.6-4.5,5.8-9.3c21-31.4,35.3-66.3,41.1-100.1c4.1-24.1,3.6-52.4-1.6-79.4
	c-1.5-7.7-3.2-15.1-4.1-17.3c-0.4-1,2.2-1.1,22-1.1c21.1,0,22.6-0.1,25.3-1.5c3.2-1.7,5.8-5.9,5.8-9.5c0-3.6-2.6-7.9-5.8-9.5
	c-2.7-1.4-4.3-1.5-28.9-1.5h-26l-1.2-3.1c-7.2-18.1-21.3-40.2-34.6-54.3C266.8-2.9,262.2-3,251.2,8.5c-7.1,7.5-14.1,16.4-20.1,25.9
	c-4.8,7.5-12.8,22.9-15.2,29.1l-1.2,3.1h-27.2h-27.2l-1.2-3.1c-7.2-18.1-21.3-40.2-34.6-54.3C115.8,0.1,111.4-1.7,105.4,1.4z
	 M115.2,31.9c9.7,11.9,20.5,31.2,26.5,47.5c2.8,7.6,7.2,22.8,8.1,28.2l0.5,3.2l-19.3-0.3c-17.6-0.3-19.8-0.5-24.4-2
	c-10.4-3.4-17.2-7.6-24.9-15.4l-4.4-4.4h12.3c10.9,0,12.6-0.2,15.2-1.5c3.2-1.7,5.8-5.9,5.8-9.5c0-3.6-2.6-7.9-5.8-9.5
	c-2.4-1.2-4.3-1.5-11.3-1.5c-4.6,0-8.5-0.2-8.5-0.4c0-0.9,4.9-9.9,9-16.8c7-11.6,15.4-22.6,16.9-22.1
	C111.3,27.5,113.3,29.5,115.2,31.9z M269,31.9c9.7,11.9,20.5,31.2,26.5,47.5c2.8,7.6,7.2,22.8,8.1,28.2l0.5,3.2l-19.3-0.3
	c-17.6-0.3-19.8-0.5-24.4-2c-10.4-3.4-17.2-7.6-24.9-15.4l-4.4-4.4h12.3c10.9,0,12.6-0.2,15.2-1.5c3.2-1.7,5.8-5.9,5.8-9.5
	c0-3.6-2.6-7.9-5.8-9.5c-2.4-1.2-4.3-1.5-11.3-1.5c-4.6,0-8.5-0.2-8.5-0.4c0-0.9,4.9-9.9,9-16.8c7-11.6,15.4-22.6,16.9-22.1
	C265.1,27.5,267.1,29.5,269,31.9z M154.2,141.9c2.5,43-10.3,86.2-38.7,130.4c-2.4,3.7-4.6,6.8-4.9,6.8c-0.7,0-9.4-13.4-14.1-21.6
	c-16-28.3-26.1-58.6-29.1-87.4c-0.9-9.1-0.2-13.1,3.4-20.1C75,142,83,135.9,91.9,133.6c2.6-0.6,12.2-0.9,32.7-1l29-0.1L154.2,141.9z
	 M308,141.9c2.5,43-10.3,86.2-38.7,130.4c-2.4,3.7-4.6,6.8-4.9,6.8c-0.7,0-9.4-13.4-14.1-21.6c-16-28.3-26.1-58.6-29.1-87.4
	c-0.9-9.1-0.2-13.1,3.4-20.1c4.1-7.9,12.1-14.1,21.1-16.3c2.6-0.6,12.2-0.9,32.7-1l29-0.1L308,141.9z M116,316.1
	c14.3,11.4,27.6,24.6,27.6,27.3c0,2.5-3.1,6.8-5.8,8.2c-3.7,1.9-5.9,1.9-9.7-0.1c-4-2-8.9-2.1-12.8,0c-3.8,2-5.3,2-9.2,0
	c-4-2-8.9-2.1-12.8,0c-3.8,2-6.1,2-9.8,0.1c-2.7-1.4-5.8-5.8-5.8-8.2c0-1.7,7.1-9.7,14.8-16.4c7.8-6.9,17.5-14.9,18.2-14.9
	C110.8,312.1,113.2,313.9,116,316.1z M269.8,316.1c14.3,11.4,27.6,24.6,27.6,27.3c0,2.5-3.1,6.8-5.8,8.2c-3.7,1.9-5.9,1.9-9.7-0.1
	c-4-2-8.9-2.1-12.8,0c-3.8,2-5.3,2-9.2,0c-4-2-8.9-2.1-12.8,0c-3.8,2-6.1,2-9.8,0.1c-2.7-1.4-5.8-5.8-5.8-8.2
	c0-1.7,7.1-9.7,14.8-16.4c7.8-6.9,17.5-14.9,18.2-14.9C264.6,312.1,267,313.9,269.8,316.1z"/>
</svg>
