<?xml version="1.0" encoding="utf-8"?>
<!-- Generator: Adobe Illustrator 27.1.1, SVG Export Plug-In . SVG Version: 6.00 Build 0)  -->
<svg version="1.1" id="Слой_1" xmlns="http://www.w3.org/2000/svg" xmlns:xlink="http://www.w3.org/1999/xlink" x="0px" y="0px"
	 viewBox="0 0 4288.6 2598" style="enable-background:new 0 0 4288.6 2598;" xml:space="preserve">
<style type="text/css">
	.st0{fill-rule:evenodd;clip-rule:evenodd;fill:#FFFFFF;}
	.st1{fill-rule:evenodd;clip-rule:evenodd;fill:#29166F;}
</style>
<g id="Layer_2">
</g>
<g id="Layer_1">
	<g>
		<path class="st0" d="M4264.9,2297.4c-26.1,0.6-75.8,7.7-91.1,9.6c-69.5,8.4-138.3,14.2-208.4,13.5
			c-168.9-1.3-354.3-43.8-493.8-142.2c-45.9-32.8-129.4-103-144-166.1c-42.7-52.8-138.9-119.1-192.4-156.4
			c-109.6-75.3-224.3-145.4-338.4-213c-133.8-79.8-269.5-156.4-405.9-231.1c-314.1-171.8-624.5-249.7-980-279.3
			c-128.7-10.3-269.5-28.3-393.8-66.3c-31.9-9.7-82.8-27-110.2-47l-23.6-17.4l15.3-25.1C979.4,851.3,1231.7,767,1373.2,747
			c137-19.3,423.1,72.7,562.7,119.1c76.5,25.7,172.1,43.1,263.8,50.2c-30.6-20.6-59.3-43.8-84.1-71.4
			c-19.8-21.2-44.6-54.1-56.1-81.7l-3.8-9.7l2.6-9.7c10.2-39.9,38.2-92,59.3-126.8c69.5-115.9,166.3-222,264.4-312.8
			c130.6-121.6,304.6-191.1,476.6-228.5c37-7.7,77.7-15.5,118.5-20.6c-18.5-5.2-36.3-10.3-53.5-14.2C2764.9,3,2599.2-8.6,2436.7,6.2
			c-109,9.6-215.4,47.6-312.9,95.9c-128.7,63.7-247.2,148-360.7,236.2c-45.2,34.8-89.8,70.1-135.1,104.9
			c-27.4,21.2-63.7,49.6-95.6,63.7c-90.5,39.9-239.6,53.4-338.4,52.1h-3.8l-3.8-0.6c-140.8-39.9-278.5-113.3-359.4-240.7
			c-17.2-27-34.4-62.4-46.5-98.5c-9.6,12.9-19.1,25.7-28.7,38.6c-77.8,111.3-150.4,273.5-185.5,406.7l-1.9,7.1l-5.1,5.8
			c-87.9,101.7-186.1,247.1-235.8,372.6c-21,54.1-41.4,121-39.5,180.2c0.6,13.5,3.2,39.3,10.2,50.2l28,41.2l-49.1,7.1
			c-83.5,11.6-190.5,41.8-273.4,83.7c84.8,54.1,203.9,89.5,295.7,98.5l22.3,1.9l5.1,21.9c5.7,25.1,33.8,66.3,48.4,85.6
			c68.2,89.5,170.8,166.1,265.1,224.6c107.7,66.9,239.6,118.4,358.1,160.9c182.9,64.4,379.1,121,568.4,164.1l226.8,52.1l-232.6,9
			c-124.9,5.1-251.1,54.1-358.8,114.6c-33.1,18-68.2,39.3-101.3,62.4c47.2,4.5,94.3,7.1,140.2,9c151,6.4,307.8,1.9,456.2-25.1
			c80.3-14.8,174-33.5,250.4-65c10.2-4.5,43.3-18.7,53.5-29.6l1.9-53.4l151,116.5c10.8,0,24.9-1.3,33.8-1.9
			c48.4-3.2,96.9-9,145.3-14.2c178.4-20.6,267-18.7,435.2,43.8c83.5,31.5,201.4,35.4,286.8,5.8l4.5-1.3h5.1
			c188-3.2,376.6-7.1,564.6-12.2c112.8-2.6,225.6-5.8,339-9.6c66.3-2.6,138.9-3.2,205.2-10.9c27.4-2.6,77.1-11.6,91.1-39.9
			C4264.9,2312.9,4265.5,2305.1,4264.9,2297.4L4264.9,2297.4z"/>
		<path class="st1" d="M306.5,1098.4c-9.6,30.9-48.4,135.8-33.1,230.4c-83.5,11.6-190.5,41.8-273.4,83.7
			c84.8,54.1,203.9,89.5,295.7,98.5l22.3,1.9l5.1,21.9c5.7,25.1,33.8,66.3,48.4,85.6c68.2,89.5,170.8,166.1,265.1,224.6
			c107.7,66.9,239.6,118.4,358.1,160.9c182.9,64.4,379.1,121,568.4,164.1l226.8,52.1l-232.6,9c-124.9,5.1-251.1,54.1-358.8,114.6
			c-33.1,18-68.2,39.3-101.3,62.4c47.2,4.5,94.3,7.1,140.2,9c151,6.4,307.8,1.9,456.2-25.1c80.3-14.8,174-33.5,250.4-65
			c10.2-4.5,43.3-18.7,53.5-29.6l1.9-53.4l151,116.5c10.8,0,24.9-1.3,33.8-1.9c20.4-1.3,41.4-3.2,61.8-5.1
			c-108.3-111.3-303.3-336-205.2-426.7c133.8-122.3,189.9-146.7,189.9-146.7s-316.7,63.1-418,315.4
			c-233.9-9.6-1299.9-204-1452.2-561.2c-35.7-83.7,17.2-175.7,17.2-175.7l-30.6-66.3L306.5,1098.4z"/>
		<path class="st1" d="M4264.9,2297.4c-87.9,2.6-161.9,24.5-299.5,23.2c-168.9-1.3-354.3-43.8-493.8-142.2
			c-45.9-32.8-129.4-103-144-166.1c-33.8-69.5-456.2-325-530.8-369.4c-491.3-292.2-786.3-460.8-1385.9-510.4
			c-113.4-9-407.8-43.8-504-113.3l-23.6-17.4c-79-55.3-121.7-259.4,31.9-395.2c0,0-147.2,242.6-8.9,360.4
			C992.8,846.8,1235.6,767,1373.2,747c137-19.3,423.1,72.7,562.7,119.1c76.5,25.7,172.1,43.1,263.8,50.2
			c-35.7-23.8-153.6-124.2-141.5-172.5c35.7-142.9,222.4-345.6,323.7-439.6c158.7-147.4,383.6-220.1,595.2-249.1
			c-175.9-48.9-358.8-65-540.4-48.9c-398.3,35.4-773.6,442.8-904.2,500.7c-76.5,33.5-274.6,61.8-342.2,52.1l-3.8-0.6
			c-176.5-49.6-346-153.8-405.9-339.2c-119.2,150.6-175.9,326.3-202.6,410c163.8-84.3,282.9-88.8,282.9-88.8
			C565.2,608,270.2,933,284.2,1230.3c10.8,221.4,858.3,423.5,1075.6,449.9c701.6,84.9,953.3,56,953.3,56s-302.7,242.6-295,370.7
			c7,128.7,126.8,177,126.8,177l5.7,76.6l179.1-16.1c178.4-20.6,268.3,0.6,426.9,84.9c159.9,85.6,281.6-5.1,305.2-5.8l902.9-11.6
			c63.1-2.6,254.9-10.3,300.8-50.8C4297.4,2332.2,4295.5,2293.6,4264.9,2297.4L4264.9,2297.4z"/>
		<path class="st1" d="M578.7,971L522,812c0,0-80.9,65.7-114.7,131.9c0,0,47.8-10.3,87.9,9.7C534.8,974.2,578.7,971,578.7,971
			L578.7,971z"/>
		<path class="st0" d="M547.4,940.7l-35.7-100.4c0,0-51.6,41.2-72.6,83c0,0,30-6.4,55.4,6.4C519.3,942.7,547.4,940.7,547.4,940.7
			L547.4,940.7z"/>
		<path class="st1" d="M667.3,1018L573,870.6c0,0-96.9,79.2-131.9,150.6c0,0,61.2-18.7,115.3-5.8
			C610.6,1028.9,667.3,1018,667.3,1018L667.3,1018z"/>
		<path class="st0" d="M624.5,992.2l-59.9-93.3c0,0-61.2,50.8-83.5,95.9c0,0,38.9-12.2,72.6-3.9
			C588.2,999.3,624.5,992.2,624.5,992.2L624.5,992.2z"/>
		<path class="st1" d="M810,1045.6l-172.7-139c0,0-120.4,88.8-153.6,164.1c0,0,84.1-25.1,165.7-16.7
			C731,1061.7,810,1045.6,810,1045.6L810,1045.6z"/>
		<path class="st0" d="M743.6,1023.8L634,936.2c0,0-76.5,56-97.5,103.6c0,0,53.5-16.1,105.1-10.9
			C693.3,1034.1,743.6,1023.8,743.6,1023.8L743.6,1023.8z"/>
		<path class="st1" d="M914.5,1073.9L741.9,935.6c0,0-120.4,88.8-153.6,163.5c0,0,84.1-24.5,165.7-16.7
			C834.9,1090,914.5,1073.9,914.5,1073.9L914.5,1073.9z"/>
		<path class="st0" d="M848.1,1052.1l-109.6-87.5c0,0-76.5,56-97.5,103.6c0,0,53.5-15.4,105.1-10.3
			C797.8,1062.4,848.1,1052.1,848.1,1052.1L848.1,1052.1z"/>
		<path class="st1" d="M1120.4,1108.7L905.6,956.2c0,0-167.6,95.2-218.6,177c0,0,112.8-26.4,219.8-16.7
			C1013.9,1125.4,1120.4,1108.7,1120.4,1108.7L1120.4,1108.7z"/>
		<path class="st0" d="M1035.5,1084.2l-135.7-96.5c0,0-106.4,60.5-138.3,112c0,0,71.4-16.1,138.9-10.3
			C968.6,1095.2,1035.5,1084.2,1035.5,1084.2L1035.5,1084.2z"/>
		<path class="st1" d="M1318.5,1124.8l-226.2-135.2c0,0-159.3,109.4-203.9,194.4c0,0,110.9-35.4,217.9-34.1
			C1214,1150.5,1318.5,1124.8,1318.5,1124.8L1318.5,1124.8z"/>
		<path class="st0" d="M1232.4,1107.4l-143.4-85.6c0,0-101.3,68.9-129.3,122.9c0,0,70.1-22.5,138.3-21.9
			C1166.1,1123.5,1232.4,1107.4,1232.4,1107.4L1232.4,1107.4z"/>
		<path class="st1" d="M1595.7,1184l-281.7-168c0,0-199.4,135.2-254.9,241.3c0,0,138.3-43.8,272.1-42.5
			C1465.1,1215.5,1595.7,1184,1595.7,1184L1595.7,1184z"/>
		<path class="st0" d="M1489.2,1162.1l-178.4-106.8c0,0-126.2,86.2-161.2,153.2c0,0,87.3-27.7,172.1-27
			C1406.3,1182.1,1489.2,1162.1,1489.2,1162.1L1489.2,1162.1z"/>
		<path class="st1" d="M1810.5,1215.5l-295-143.5c0,0-187.3,152.5-233.2,263.2c0,0,133.8-56,267-66.3
			C1682.4,1258.7,1810.5,1215.5,1810.5,1215.5L1810.5,1215.5z"/>
		<path class="st0" d="M1702,1202l-186.7-90.1c0,0-117.9,95.9-147.2,166.1c0,0,84.8-35.4,168.9-41.8
			C1621.7,1229.7,1702,1202,1702,1202L1702,1202z"/>
		<path class="st1" d="M1989.5,1254.8l-294.4-160.9c0,0-187.3,171.2-233.2,296c0,0,133.8-62.4,267-74.7
			C1862.1,1303.7,1989.5,1254.8,1989.5,1254.8L1989.5,1254.8z"/>
		<path class="st0" d="M1881.7,1240L1695,1138.3c0,0-117.9,108.8-147.2,187.3c0,0,84.8-39.9,168.9-47
			C1800.8,1270.9,1881.7,1240,1881.7,1240L1881.7,1240z"/>
		<path class="st1" d="M2154.6,1339.1l-231.3-180.2c0,0-172.7,126.8-223,230.4c0,0,117.9-38,230.7-30.9
			C2043,1365.5,2154.6,1339.1,2154.6,1339.1L2154.6,1339.1z"/>
		<path class="st0" d="M2064.6,1312.7l-145.9-113.9c0,0-109.6,79.8-141.5,145.4c0,0,74.6-23.8,145.9-19.3
			S2064.6,1312.7,2064.6,1312.7L2064.6,1312.7z"/>
		<path class="st1" d="M2334.2,1381.6l-197.5-180.8c0,0-196.3,126.8-265.7,230.4c0,0,124.9-38,235.8-30.9
			C2218.3,1407.3,2334.2,1381.6,2334.2,1381.6L2334.2,1381.6z"/>
		<path class="st0" d="M2249.4,1355.2l-124.9-114.6c0,0-124.3,80.4-168.2,145.4c0,0,79-23.8,149.1-19.3
			C2176.1,1371.3,2249.4,1355.2,2249.4,1355.2L2249.4,1355.2z"/>
		<path class="st1" d="M2485.3,1495.5l-160.6-214.3c0,0-216,86.9-303.9,175.7c0,0,130-13.5,237.7,14.8
			C2366.7,1499.4,2485.3,1495.5,2485.3,1495.5L2485.3,1495.5z"/>
		<path class="st0" d="M2406.8,1454.3l-101.3-135.8c0,0-137,55.3-192.4,111.3c0,0,82.2-8.4,150.4,9
			C2331.6,1456.9,2406.8,1454.3,2406.8,1454.3L2406.8,1454.3z"/>
		<path class="st1" d="M1990.2,1879.7l-130.6-150l116-162.2l-212.2,151.9C1763.3,1719.5,1897.1,1843.1,1990.2,1879.7L1990.2,1879.7z
			"/>
		<path class="st0" d="M1985.6,1879.7c-30.6-58.6-82.2-101-125.5-151.2l57.3-94.6l-109.6,91.4
			C1844.7,1763.2,1940.9,1849.5,1985.6,1879.7L1985.6,1879.7z"/>
		<path class="st1" d="M1811.7,1865.6l-130.6-150l116-162.2l-212.2,151.9C1584.9,1705.3,1718.7,1828.9,1811.7,1865.6L1811.7,1865.6z
			"/>
		<path class="st0" d="M1807.1,1865.6c-31.2-57.9-82.8-101-126.2-150.6l58-94.6l-110.2,90.8
			C1666.3,1749.1,1761.9,1835.3,1807.1,1865.6L1807.1,1865.6z"/>
		<path class="st1" d="M1599.5,1839.8l-130.6-150l116-162.2l-212.8,151.2C1372.1,1678.9,1506.5,1803.2,1599.5,1839.8L1599.5,1839.8z
			"/>
		<path class="st0" d="M1594.9,1839.8c-31.2-58.6-82.8-101-126.2-151.2l58-94.6l-110.2,91.4
			C1453.5,1723.3,1549.7,1808.9,1594.9,1839.8L1594.9,1839.8z"/>
		<path class="st1" d="M1409,1823.7l-117.2-160.3l128.7-151.9l-223.7,133.2C1196.8,1644.8,1319.8,1779.3,1409,1823.7L1409,1823.7z"
			/>
		<path class="st0" d="M1404.4,1823.7c-26.1-60.5-73.9-107.5-112.2-160.9l65-89.5l-117.2,81.7
			C1273.8,1695.7,1362.4,1789.6,1404.4,1823.7L1404.4,1823.7z"/>
		<path class="st1" d="M1204.5,1776.1l-98.1-152.5l126.2-130.7l-210.9,108.1C1021.6,1601.1,1125.5,1730.4,1204.5,1776.1
			L1204.5,1776.1z"/>
		<path class="st0" d="M1199.9,1776.1c-20.4-56.6-61.2-102.3-93-153.2l64.4-77.2l-111.5,67.6
			C1088.4,1652.6,1162.9,1742.7,1199.9,1776.1L1199.9,1776.1z"/>
		<path class="st1" d="M1028.6,1733.6l-80.9-148l124.9-112.6l-202.6,86.9C869.9,1559.9,958.5,1686,1028.6,1733.6L1028.6,1733.6z"/>
		<path class="st0" d="M1024,1733.6c-15.3-54.1-49.7-98.5-76.5-148l64.4-67.6l-107.7,55.3C928.4,1612,992.1,1700.2,1024,1733.6
			L1024,1733.6z"/>
		<path class="st1" d="M843.8,1662.2l-57.3-126.1l109-84.3l-170.8,57.9C724.6,1509.7,789,1619.1,843.8,1662.2L843.8,1662.2z"/>
		<path class="st0" d="M839.2,1662.2c-9.6-45.1-35-83.7-54.2-125.5l57.3-51.5l-91.1,38.6C768.5,1556.7,815,1632.6,839.2,1662.2
			L839.2,1662.2z"/>
		<path class="st1" d="M689.6,1615.2l-40.8-121.6l109-67.6L594,1463.3C594,1463.3,643.7,1570.2,689.6,1615.2L689.6,1615.2z"/>
		<path class="st0" d="M685,1615.2c-3.8-42.5-24.2-80.4-37.6-121l57.3-42.5l-87.9,27C629.6,1510.9,665.9,1585.6,685,1615.2
			L685,1615.2z"/>
		<path class="st1" d="M559,1553.4l-22.3-104.3l95.6-45.1l-137.6,14.8C494.6,1418.9,525.2,1512.2,559,1553.4L559,1553.4z"/>
		<path class="st0" d="M554.4,1553.4c0.6-35.4-12.7-68.9-19.8-103.6l51-29l-74.5,14.2C518.7,1462,541,1527.7,554.4,1553.4
			L554.4,1553.4z"/>
		<path class="st1" d="M436,1489.7l-15.3-105.6l98.8-38.6l-138.9,5.2C380.6,1350.7,404.8,1445.9,436,1489.7L436,1489.7z"/>
		<path class="st0" d="M431.4,1489.7c3.2-35.4-7.6-69.5-12.7-104.9l53.5-25.1l-75.8,8.4C402.1,1395.8,419.9,1462.7,431.4,1489.7
			L431.4,1489.7z"/>
		<path class="st0" d="M1897,2304.5c0,0-94.9,47-254.2,63.1c-158.7,15.4-375.3,10.3-375.3,10.3s275.9-27.7,411.6-49.6
			C1814.8,2307.1,1957.5,2240.1,1897,2304.5L1897,2304.5z"/>
		<path class="st1" d="M340.9,1558.6c-5.7,15.4-11.5,31.5-17.2,47c16.6,21.2,39.5,36,63.1,50.2c-16.6,4.5-42.1,11.6-57.4,18.7
			c38.9,33.5,99.4,52.8,149.1,67.6c-29.3-2.6-56.7,2.6-82.2,12.9c51.6,41.8,109.6,57.3,166.3,79.2c-24.2,2.6-45.2,16.7-65,34.1
			c49.1,23.8,103.2,29.6,157.4,36.7c-22.3,15.4-33.8,36-42.1,57.9c81.6,27.7,159.9,21.9,239,26.4c-25.5,14.8-41.4,32.2-54.8,50.8
			c93.7,26.4,181.6,27,271.5,36c-43.3,4.5-82.2,14.2-115.3,30.2c184.8,41.2,356.8,19.3,534,20.6c0,0-440.3-104.3-707.3-247.1
			C513.6,1736.9,340.9,1558.6,340.9,1558.6L340.9,1558.6z"/>
		<path class="st0" d="M2436.7,1784.5c-129.4,52.1-175.9,193.7-198.2,314.1c-22.9,120.4,189.2,74,321.8,97.2
			c131.9,23.2,142.7,127.4,233.9,135.8s145.3-58.6,295.7,10.9c149.8,68.9,314.1-39.3,344.1-57.3c30.6-18-208.4-32.8-405.3-137.1
			C2831.8,2043.8,2841.3,1792.8,2436.7,1784.5L2436.7,1784.5z"/>
		<path class="st1" d="M3022.3,2263.3c56.7,0,103.2-46.3,103.2-103.6s-46.5-104.3-103.2-104.3s-102.6,47-102.6,104.3
			S2965.6,2263.3,3022.3,2263.3L3022.3,2263.3z"/>
		<path class="st0" d="M3022.3,2231.1c39.5,0,70.7-32.2,70.7-71.4s-31.2-71.4-70.7-71.4c-38.9,0-70.7,32.2-70.7,71.4
			S2983.4,2231.1,3022.3,2231.1L3022.3,2231.1z"/>
		<path class="st1" d="M3022.3,2199.6c21.7,0,39.5-18,39.5-39.9s-17.8-39.9-39.5-39.9s-39.5,18-39.5,39.9
			S3000.6,2199.6,3022.3,2199.6L3022.3,2199.6z"/>
		<path class="st0" d="M2988.5,2161.6c12.1,0,21.7-10.3,21.7-22.5s-9.6-21.9-21.7-21.9c-12.1,0-21.7,9.6-21.7,21.9
			C2966.9,2151.3,2976.4,2161.6,2988.5,2161.6L2988.5,2161.6z"/>
		<path class="st0" d="M3054.8,2205.4c11.5,0,21.7-10.3,21.7-22.5s-10.2-21.9-21.7-21.9c-12.1,0-22.3,9.6-22.3,21.9
			S3042.7,2205.4,3054.8,2205.4L3054.8,2205.4z"/>
		<path class="st1" d="M3750,2403l35.7-12.9c3.2-1.3,11.5,38-6.4,70.8c-25.5,47-92.4,75.9-160.6,84.9
			C3678,2521.4,3745.5,2484.7,3750,2403L3750,2403z"/>
		<path class="st1" d="M3783.1,2376.6l29.9-23.8c2.6-1.9,22.9,32.2,17.2,68.2c-8.3,52.8-61.8,103.6-123,135.2
			C3754.5,2512.4,3806.7,2455.8,3783.1,2376.6L3783.1,2376.6z"/>
		<path class="st1" d="M3630.2,2406.8l52.9-16.7c4.5-1.9,1.3,50.8-34.4,94c-51,62.4-151.7,101.7-245.3,113.9
			C3491.3,2564.5,3595.2,2516.2,3630.2,2406.8L3630.2,2406.8z"/>
		<path class="st1" d="M3585.6,2399.1l55.4-14.2c5.1-1.3-7,50.8-49.7,92c-61.8,59.2-168.9,93.3-265.1,100.4
			C3419.9,2549.1,3531.4,2505.9,3585.6,2399.1L3585.6,2399.1z"/>
		<path class="st0" d="M2474.9,1512.2c0,0,285.5,130,391.2,222s373.4,233,403.4,270.3c29.9,38,52.9,119.1,115.3,161.5
			c0,0-52.9-28.3-134.4-130s-325.6-204.7-418-283.8C2740,1673.8,2474.9,1512.2,2474.9,1512.2L2474.9,1512.2z"/>
		<path class="st0" d="M1679.1,476c0,0,209.6-212.4,377.9-293.5c168.2-81.1,349.8-184.7,725.1-137.1c0,0-453.7-21.9-702.2,160.9
			c-248.5,183.4-362.6,289-369.6,298.6C1702.6,514.7,1655.5,510.2,1679.1,476L1679.1,476z"/>
		<path class="st0" d="M992.8,859.6c0,0,283.6-141.6,409.1-140.3c126.2,0.6,312.2,43.1,312.2,43.1s-165.7-85.6-313.5-77.2
			C1253.4,693.6,992.8,859.6,992.8,859.6L992.8,859.6z"/>
		<path class="st0" d="M617.5,575.8c15.3-42.5,70.7-193.7,145.3-291.5c0,0-80.3,133.2-115.3,281.2
			C637.8,568.7,627.7,572.6,617.5,575.8L617.5,575.8z M806.1,516c17.8-39.9,37-77.9,57.3-112.6c0,0-19.1,41.8-43.3,108.8L806.1,516z
			 M742.3,534.6c21.7-60.5,48.4-125.5,80.9-179.6c0,0-34.4,73.4-63.7,174.4L742.3,534.6z M677.4,555.2
			c24.8-72.1,62.5-166.7,109.6-238.1c0,0-52.9,102.3-87.3,231C692,550.7,685,553.3,677.4,555.2L677.4,555.2z"/>
		<path class="st0" d="M2029.5,1489.1c4.5,0,8.3,4.5,7.7,10.3c-0.6,5.2-5.1,9.7-9.6,9.7c-5.1,0-8.3-4.5-7.7-9.7
			C2020.6,1493.6,2024.4,1489.1,2029.5,1489.1L2029.5,1489.1z"/>
		<path class="st0" d="M1926.9,1435c11.5,0,20.4,11.6,19.1,25.1c-1.3,14.2-12.1,25.7-24.2,25.7c-11.5,0-20.4-11.6-19.1-25.7
			C1904,1446.6,1914.8,1435,1926.9,1435L1926.9,1435z"/>
		<path class="st0" d="M1939,1535.4c7.7,0,12.7,7.1,12.1,16.1c-0.6,9-7.7,16.1-15.3,16.1s-13.4-7.1-12.1-16.1
			C1924.4,1542.5,1931.4,1535.4,1939,1535.4L1939,1535.4z"/>
		<path class="st0" d="M2079.9,1547c4.5,0,8.3,4.5,7.6,9.7c-0.6,5.8-5.1,10.3-9.6,10.3c-5.1,0-8.3-4.5-7.6-10.3
			C2070.9,1551.5,2074.8,1547,2079.9,1547L2079.9,1547z"/>
		<path class="st0" d="M1998.3,1597.8c10.2,0,17.8,10.3,16.6,21.9c-0.6,12.2-10.2,21.9-20.4,21.9c-10.8,0-17.8-9.7-17.2-21.9
			C1978.6,1608.1,1988.1,1597.8,1998.3,1597.8L1998.3,1597.8z"/>
		<path class="st0" d="M2092,1621c7.6,0,13.4,7.1,12.1,16.1c-0.6,9-7.6,16.1-14.7,16.1c-7.6,0-13.4-7.1-12.7-16.1
			C2078,1628.1,2084.3,1621,2092,1621L2092,1621z"/>
		<path class="st0" d="M1841.6,1542.5c12.1,0,20.4,11.6,19.1,25.1c-1.3,14.2-12.1,25.1-23.6,25.1c-12.1,0-20.4-10.9-19.1-25.1
			C1819.2,1554.1,1829.4,1542.5,1841.6,1542.5L1841.6,1542.5z"/>
		<path class="st0" d="M1698.2,1422.8c7.7,0,13.4,7.7,12.7,16.1c-1.3,9-7.7,16.7-15.3,16.7c-7.7,0-13.4-7.7-12.1-16.7
			C1684.2,1430.5,1691.2,1422.8,1698.2,1422.8L1698.2,1422.8z"/>
		<path class="st0" d="M1598.8,1523.2c11.5,0,20.4,10.9,19.1,25.1s-12.1,25.1-24.2,25.1c-11.5,0-20.4-10.9-19.1-25.1
			C1575.8,1534.1,1586.7,1523.2,1598.8,1523.2L1598.8,1523.2z"/>
		<path class="st0" d="M1402.5,1339.8c12.1,0,21,11.6,19.8,25.7c-1.9,13.5-12.1,25.1-24.2,25.1s-20.4-11.6-19.1-25.1
			C1380.2,1351.3,1391,1339.8,1402.5,1339.8L1402.5,1339.8z"/>
		<path class="st0" d="M1292.3,1483.3c12.1,0,20.4,10.9,19.1,25.1c-1.3,13.5-12.1,25.1-23.6,25.1c-12.1,0-20.4-11.6-19.1-25.1
			C1270,1494.2,1280.2,1483.3,1292.3,1483.3L1292.3,1483.3z"/>
		<path class="st0" d="M1551,1420.2c7.7,0,13.4,7.1,12.1,16.1c-0.6,9-7.7,16.1-15.3,16.1c-7,0-12.7-7.1-12.1-16.1
			C1537,1427.3,1543.3,1420.2,1551,1420.2L1551,1420.2z"/>
		<path class="st0" d="M1451.6,1479.4c4.5,0,8.3,4.5,7.7,10.3c-0.6,5.2-5.1,9.7-9.6,9.7c-4.5,0-8.3-4.5-7.7-9.7
			C1442.7,1483.9,1446.5,1479.4,1451.6,1479.4L1451.6,1479.4z"/>
		<path class="st0" d="M1273.8,1342.3c5.1,0,8.3,4.5,7.7,10.3c-0.6,5.2-4.5,9.7-9.6,9.7c-4.5,0-7.7-4.5-7.7-9.7
			C1264.9,1346.8,1269.3,1342.3,1273.8,1342.3L1273.8,1342.3z"/>
		<path class="st0" d="M1171.2,1288.3c12.1,0,20.4,11.6,19.1,25.1c-1.3,14.2-11.5,25.7-23.6,25.7s-20.4-11.6-19.1-25.7
			C1148.9,1299.9,1159.7,1288.3,1171.2,1288.3L1171.2,1288.3z"/>
		<path class="st0" d="M1183.3,1388.7c7.7,0,13.4,7.1,12.1,16.1c-0.6,9-7.7,16.1-15.3,16.1c-7.7,0-12.7-7.1-12.1-16.1
			S1175.7,1388.7,1183.3,1388.7L1183.3,1388.7z"/>
		<path class="st0" d="M1037.4,1388.7c4.5,0,8.3,4.5,7.7,9.7c-0.6,5.8-5.1,10.3-9.6,10.3c-4.5,0-8.3-4.5-7.7-10.3
			C1028.5,1393.2,1032.3,1388.7,1037.4,1388.7L1037.4,1388.7z"/>
		<path class="st0" d="M950.7,1296c11.5,0,20.4,10.9,19.1,25.1c-1.3,13.5-12.1,25.1-24.2,25.1c-11.5,0-20.4-11.6-19.1-25.1
			C927.8,1306.9,938.6,1296,950.7,1296L950.7,1296z"/>
		<path class="st0" d="M935.4,1424.7c7.7,0,12.7,7.1,12.1,16.1c-0.6,9-7.7,16.1-15.3,16.1s-13.4-7.1-12.1-16.1
			C920.8,1431.8,927.8,1424.7,935.4,1424.7L935.4,1424.7z"/>
		<path class="st0" d="M844.3,1187.2c12.1,0,20.4,10.9,19.1,25.1s-12.1,25.1-23.6,25.1c-12.1,0-21-10.9-19.8-25.1
			C821.4,1198.2,832.2,1187.2,844.3,1187.2L844.3,1187.2z"/>
		<path class="st0" d="M743.6,1369.4c7.7,0,13.4,7.7,12.1,16.7c-0.6,8.4-7.7,16.1-15.3,16.1c-7,0-12.7-7.7-12.1-16.1
			C729,1377.1,736,1369.4,743.6,1369.4L743.6,1369.4z"/>
		<path class="st0" d="M692.7,1207.2c12.1,0,20.4,11.6,19.1,25.1c-1.3,14.2-11.5,25.7-23.6,25.7c-12.1,0-20.4-11.6-19.1-25.7
			C670.3,1218.8,681.2,1207.2,692.7,1207.2L692.7,1207.2z"/>
		<path class="st0" d="M527.6,1254.2c7.7,0,13.4,7.7,12.1,16.1c-0.6,9-7.7,16.7-15.3,16.7c-7.7,0-12.7-7.7-12.1-16.7
			C513,1261.9,520,1254.2,527.6,1254.2L527.6,1254.2z"/>
		<path class="st0" d="M572.2,1170.5c7.7,0,12.7,7.7,12.1,16.1c-0.6,9-7.7,16.7-15.3,16.7c-7.7,0-13.4-7.7-12.1-16.7
			C557.6,1178.2,564.6,1170.5,572.2,1170.5L572.2,1170.5z"/>
	</g>
</g>
</svg>
